<svg width="1402" height="1536" xmlns="http://www.w3.org/2000/svg" xmlns:xlink="http://www.w3.org/1999/xlink" xml:space="preserve" overflow="hidden"><g transform="translate(-1471 -517)"><g><path d="M2535 1782 2706.11 1964.21" stroke="#323A4C" stroke-width="174.167" stroke-linecap="round" stroke-linejoin="round" stroke-miterlimit="10" stroke-opacity="1" fill="none" fill-rule="evenodd"/><path d="M1801 1049.22C1801 1024.25 1821.24 1004 1846.22 1004L1950.78 1004C1975.76 1004 1996 1024.25 1996 1049.22L1996 1153.78C1996 1178.76 1975.76 1199 1950.78 1199L1846.22 1199C1821.24 1199 1801 1178.76 1801 1153.78Z" fill="#323A4C" fill-rule="evenodd" fill-opacity="1"/><path d="M1801 1322.22C1801 1297.24 1821.24 1277 1846.22 1277L1950.78 1277C1975.76 1277 1996 1297.24 1996 1322.22L1996 1426.78C1996 1451.75 1975.76 1472 1950.78 1472L1846.22 1472C1821.24 1472 1801 1451.75 1801 1426.78Z" fill="#323A4C" fill-rule="evenodd" fill-opacity="1"/><path d="M2064 1049.22C2064 1024.25 2084.24 1004 2109.22 1004L2213.78 1004C2238.75 1004 2259 1024.25 2259 1049.22L2259 1153.78C2259 1178.76 2238.75 1199 2213.78 1199L2109.22 1199C2084.24 1199 2064 1178.76 2064 1153.78Z" fill="#323A4C" fill-rule="evenodd" fill-opacity="1"/><path d="M2064 1322.22C2064 1297.24 2084.24 1277 2109.22 1277L2213.78 1277C2238.75 1277 2259 1297.24 2259 1322.22L2259 1426.78C2259 1451.75 2238.75 1472 2213.78 1472L2109.22 1472C2084.24 1472 2064 1451.75 2064 1426.78Z" fill="#323A4C" fill-rule="evenodd" fill-opacity="1"/><path d="M2348 1101.5C2348 1051.52 2388.74 1011 2439 1011 2489.26 1011 2530 1051.52 2530 1101.5 2530 1151.48 2489.26 1192 2439 1192 2388.74 1192 2348 1151.48 2348 1101.5Z" fill="#7383A9" fill-rule="evenodd" fill-opacity="1"/><path d="M2348 1374.5C2348 1324.52 2388.74 1284 2439 1284 2489.26 1284 2530 1324.52 2530 1374.5 2530 1424.48 2489.26 1465 2439 1465 2388.74 1465 2348 1424.48 2348 1374.5Z" fill="#7383A9" fill-rule="evenodd" fill-opacity="1"/><path d="M2599 955.5C2599 905.518 2639.74 865 2690 865 2740.26 865 2781 905.518 2781 955.5 2781 1005.48 2740.26 1046 2690 1046 2639.74 1046 2599 1005.48 2599 955.5Z" fill="#7383A9" fill-rule="evenodd" fill-opacity="1"/><path d="M2599 1527C2599 1476.74 2639.74 1436 2690 1436 2740.26 1436 2781 1476.74 2781 1527 2781 1577.26 2740.26 1618 2690 1618 2639.74 1618 2599 1577.26 2599 1527Z" fill="#7383A9" fill-rule="evenodd" fill-opacity="1"/><path d="M2690 1241.5C2690 1191.52 2730.74 1151 2781 1151 2831.26 1151 2872 1191.52 2872 1241.5 2872 1291.48 2831.26 1332 2781 1332 2730.74 1332 2690 1291.48 2690 1241.5Z" fill="#7383A9" fill-rule="evenodd" fill-opacity="1"/><path d="M2578.29 1859.8C2237.28 2068.72 1791.48 1961.65 1582.55 1620.64 1373.63 1279.63 1480.7 833.825 1821.71 624.9 2054.38 482.348 2347.43 482.698 2579.77 625.805L2483.97 781.323C2229.36 624.488 1895.81 703.757 1738.97 958.375 1582.14 1212.99 1661.41 1546.54 1916.03 1703.38 2089.75 1810.39 2308.89 1810.65 2482.87 1704.05Z" fill="#323A4C" fill-rule="evenodd" fill-opacity="1"/><path d="M2439 702C2439 651.742 2479.74 611 2530 611 2580.26 611 2621 651.742 2621 702 2621 752.258 2580.26 793 2530 793 2479.74 793 2439 752.258 2439 702Z" fill="#323A4C" fill-rule="evenodd" fill-opacity="1"/><path d="M2439 1782.5C2439 1732.52 2479.74 1692 2530 1692 2580.26 1692 2621 1732.52 2621 1782.5 2621 1832.48 2580.26 1873 2530 1873 2479.74 1873 2439 1832.48 2439 1782.5Z" fill="#323A4C" fill-rule="evenodd" fill-opacity="1"/></g></g></svg>